<?xml version="1.0" standalone="no"?>
<!DOCTYPE svg PUBLIC "-//W3C//DTD SVG 20010904//EN"
 "http://www.w3.org/TR/2001/REC-SVG-20010904/DTD/svg10.dtd">
<svg version="1.0" xmlns="http://www.w3.org/2000/svg"
 width="512.000000pt" height="512.000000pt" viewBox="0 0 512.000000 512.000000"
 preserveAspectRatio="xMidYMid meet">
<metadata>
Created by potrace 1.14, written by Peter Selinger 2001-2017
</metadata>
<g transform="translate(0.000000,512.000000) scale(0.100000,-0.100000)"
fill="#000000" stroke="none">
<path d="M4032 4600 c-33 -14 -39 -42 -38 -177 1 -110 3 -124 21 -137 28 -22
71 -20 95 4 18 18 20 33 20 149 0 128 0 130 -26 150 -29 23 -38 24 -72 11z"/>
<path d="M2992 4517 c-29 -30 -28 -62 2 -92 18 -18 31 -23 53 -19 58 10 78 80
33 116 -30 24 -62 23 -88 -5z"/>
<path d="M782 4445 c-150 -77 -178 -260 -57 -380 183 -182 482 22 381 260 -36
85 -110 136 -206 142 -56 4 -72 1 -118 -22z"/>
<path d="M3693 4259 c-44 -16 -54 -69 -19 -104 24 -24 30 -25 148 -25 143 0
168 10 168 63 0 37 -7 50 -35 64 -23 12 -231 14 -262 2z"/>
<path d="M4173 4259 c-45 -17 -56 -73 -20 -107 21 -20 34 -22 148 -22 112 0
128 2 147 20 28 26 28 71 1 96 -18 16 -38 19 -137 20 -65 1 -127 -2 -139 -7z"/>
<path d="M4019 4111 c-22 -18 -24 -26 -25 -145 -1 -111 1 -130 18 -151 25 -32
70 -33 98 -3 18 20 20 35 20 148 0 113 -2 128 -20 148 -25 27 -60 28 -91 3z"/>
<path d="M1628 4043 c-36 -43 -26 -95 21 -111 47 -17 91 16 91 67 0 50 -80 81
-112 44z"/>
<path d="M732 3650 c-107 -4 -126 -8 -138 -24 -12 -17 -14 -246 -14 -1547 l0
-1528 26 -20 27 -21 1929 0 1929 0 24 25 25 24 0 1526 c0 1512 0 1525 -20
1545 -13 13 -33 20 -57 20 -1041 4 -3643 4 -3731 0z m1278 -141 c4 -6 5 -1778
1 -1826 -1 -8 -128 -11 -511 -10 l-510 1 -60 120 c-90 183 -161 399 -186 564
-3 20 -7 48 -9 61 -13 77 -18 265 -17 651 0 239 1 437 1 440 1 8 1285 7 1291
-1z m574 -4 c-170 -98 -308 -230 -398 -380 l-36 -59 0 225 0 225 226 -1 c155
0 220 -3 208 -10z m1817 0 c1 -18 4 -753 3 -752 -1 1 -26 50 -56 108 -131 257
-349 480 -589 603 -48 25 -86 46 -83 48 9 10 724 3 725 -7z m-1151 -19 c81
-11 116 -19 189 -39 l76 -22 0 -372 c0 -205 -1 -373 -2 -373 -1 0 -25 25 -54
55 -104 111 -232 166 -394 171 -108 4 -160 -5 -243 -38 -59 -23 -150 -90 -184
-134 -12 -16 -25 -31 -29 -34 -16 -14 -59 -101 -74 -152 -44 -153 -11 -294 91
-394 142 -138 409 -142 561 -9 59 52 113 128 108 153 -2 9 -4 23 -4 29 -1 7
-14 19 -30 28 -38 19 -71 8 -101 -37 -62 -90 -138 -130 -245 -131 -89 -1 -137
16 -191 65 -140 129 -63 391 144 486 106 48 274 42 387 -15 101 -52 192 -175
212 -289 16 -86 8 -303 -12 -369 -66 -217 -272 -352 -514 -339 -265 15 -520
171 -657 401 -83 140 -114 271 -110 463 7 302 130 545 364 722 120 91 294 161
430 174 37 4 68 7 70 9 4 3 174 -4 212 -9z m494 -169 c308 -186 521 -486 591
-832 19 -95 26 -331 13 -465 -7 -74 -41 -233 -64 -302 l-15 -47 -307 2 -307 2
-1 843 -2 843 21 -7 c12 -4 44 -20 71 -37z m-1546 -1309 c77 -116 195 -225
316 -293 36 -20 66 -38 66 -39 0 -1 -97 -3 -215 -3 l-215 -1 0 199 c0 110 1
199 3 199 2 0 22 -28 45 -62z m-1382 -291 c138 -270 295 -467 554 -692 138
-119 348 -248 545 -332 l100 -43 -649 3 -649 2 0 630 c1 347 2 632 3 635 0 3
12 -22 26 -55 13 -33 45 -100 70 -148z m2698 51 c-1 -46 -2 -86 -3 -89 0 -4
-45 -7 -98 -8 -54 -1 -93 2 -88 7 6 4 36 29 67 56 32 26 70 64 85 86 15 21 30
37 33 35 3 -2 5 -41 4 -87z m890 -635 l-1 -478 -376 -3 -377 -2 0 43 0 43 93
61 c243 160 444 386 575 649 27 55 55 116 63 136 7 20 15 35 18 33 3 -2 6
-218 5 -482z m-2394 396 c7 -9 5 -717 -2 -724 -8 -9 -279 131 -368 190 -186
125 -354 279 -488 449 -34 43 -62 82 -62 85 0 9 914 8 920 0z m1495 2 c7 -1
10 -125 10 -353 l0 -353 -52 -27 c-52 -27 -283 -111 -283 -103 0 3 -11 0 -25
-5 -14 -5 -46 -12 -72 -16 -27 -3 -70 -10 -98 -15 -53 -9 -392 -5 -460 6 -93
14 -254 49 -312 67 l-63 19 0 392 0 392 673 -1 c369 -1 677 -2 682 -3z m705
-1 c-1 -3 -18 -36 -39 -74 -65 -116 -161 -244 -256 -340 -87 -88 -233 -206
-253 -206 -9 0 -15 606 -7 620 4 7 555 7 555 0z m-700 -870 c0 -5 -8 -10 -17
-10 -15 0 -16 2 -3 10 19 12 20 12 20 0z"/>
</g>
</svg>
